<svg xmlns="http://www.w3.org/2000/svg" width="220" height="220" viewBox="0 0 220 220">
  <defs>
    <style>
      .cls-1 {
        fill: #fff;
        fill-rule: evenodd;
      }
    </style>
  </defs>
  <path class="cls-1" d="M20.97,151.667S20.156,121.4,15.975,111.51c0,0-3.94-52.712,0-70.275,0,0-.442-33.868,9.99-35.137,0,0,26.579-8.842,59.94,0,0,0,13.394,9.24,79.92,5.02,0,0,21.882-3.205,24.975,5.02,0,0,7.272,45.215,9.99,55.216,0,0,5.065,21.938,0,80.314,0,0-.511,41.024,5,55.215,0,0,4.731,9.1-9.99,10.04,0,0-74.74-1.4-99.9,0H55.935s21.754-28.854,59.94-40.157a159.887,159.887,0,0,0,34.965-20.079l34.965-20.078s10.143-7.5,5-15.059a7.5,7.5,0,0,0-9.99,0s-33.484,21.911-39.96,25.1c0,0-28.695,15.8-5-10.039l39.96-30.118s13.888-10.883,5-20.078c0,0-4.595-4.206-14.985,5.02,0,0-40.146,37.538-44.955,40.157,0,0-23.119,9.547,0-15.059l44.955-45.176s12.139-12.929,5-20.078c0,0-6.719-4.485-19.98,10.039l-39.96,40.157s-29.281,23.406-9.99-5.02l29.97-35.137s8.847-7.414,0-15.059c0,0-6.472-4.377-14.985,5.02,0,0-33.324,40.9-44.955,50.2,0,0-15.134,12.763-14.985,0,0,0,4.054-45.877-5-45.177,0,0-13.138-11.415-14.985,10.039,0,0,1.389,17.252,0,25.1a126.264,126.264,0,0,0,0,35.138S37.91,141.1,20.97,151.667Z"/>
</svg>
