<svg id="Layer_2" data-name="Layer 2" xmlns="http://www.w3.org/2000/svg" viewBox="0 0 457.75 206.55"><defs><style>.cls-1{font-size:37.27px;fill:#ea2046;letter-spacing:0.01em;}.cls-1,.cls-2{font-family:Poppins-Medium, Poppins;font-weight:500;}.cls-2{font-size:17.58px;letter-spacing:0.2em;}.cls-2,.cls-4{fill:#333;}.cls-3{fill:#e82144;}.cls-5{fill:#fff;}</style></defs><title>perabotshopsvg</title><text class="cls-1" transform="translate(212.27 104.26)">PerabotShop</text><text class="cls-2" transform="translate(214.14 123.09)">best shopping</text><path class="cls-3" d="M19.36,182.1V345.69l88.36-16V166.06Zm84.23,46.57A62.36,62.36,0,0,1,100.81,241l.06.05c2.13,1.67,1.73,5.33,0,7.07-2.07,2.07-5,1.66-7.07,0a20.36,20.36,0,0,1-7-12.29c-.49-2.66.7-5.38,3.49-6.15a5.22,5.22,0,0,1,3.14.2c.21-1.31.39-2.62.57-3.91.39-2.69,3.8-4.13,6.15-3.49C102.94,223.3,104,226,103.59,228.67Z" transform="translate(-19.36 -139.14)"/><polygon class="cls-4" points="186.74 197.1 98.38 181.06 98.38 0 186.74 16.04 186.74 197.1"/><path class="cls-5" d="M182.27,215.61H117.75v17.9h64.52Zm-29.34,9.95H137.8a1,1,0,0,1,0-2h15.13a1,1,0,0,1,0,2Z" transform="translate(-19.36 -139.14)"/><path class="cls-5" d="M152.93,251.26H137.8a1,1,0,0,0,0,2h15.13a1,1,0,0,0,0-2Z" transform="translate(-19.36 -139.14)"/><path class="cls-5" d="M182.27,271H117.75v17.9h64.52ZM152.93,281H137.8a1,1,0,0,1,0-2h15.13a1,1,0,0,1,0,2Z" transform="translate(-19.36 -139.14)"/><path class="cls-5" d="M177.09,293.83a1,1,0,0,0-1.2-.76,1,1,0,0,0-.75,1.2L180,316a1,1,0,0,0,1,.78l.22,0a1,1,0,0,0,.75-1.2Z" transform="translate(-19.36 -139.14)"/><path class="cls-5" d="M187.8,266V238.55a1,1,0,0,0-1-1H117.75v2H185.8V265H117.75v2H186.8A1,1,0,0,0,187.8,266Z" transform="translate(-19.36 -139.14)"/><path class="cls-5" d="M131,193.72h13.42v-1a1,1,0,0,1,1-1H132.25l5.87-21.91h14.49l5.87,21.91H145.37a1,1,0,0,1,1,1v1h13.42a1,1,0,0,0,.79-.39,1,1,0,0,0,.17-.87l-6.41-23.91a1,1,0,0,0-1-.74h-16a1,1,0,0,0-1,.74L130,192.46a1,1,0,0,0,1,1.26Z" transform="translate(-19.36 -139.14)"/><path class="cls-5" d="M144.37,210.51a1,1,0,0,0,2,0V193.72h-2Z" transform="translate(-19.36 -139.14)"/><path class="cls-5" d="M145.37,191.72a1,1,0,0,0-1,1v1h2v-1A1,1,0,0,0,145.37,191.72Z" transform="translate(-19.36 -139.14)"/><rect class="cls-5" x="51.65" y="132.88" width="36.7" height="2"/><rect class="cls-5" x="51.65" y="162.02" width="36.7" height="2"/><path class="cls-5" d="M54,226.87c.67.16,1.33.34,2,.56a23.69,23.69,0,0,1,23.64-23.22h28.13v-2H79.59A25.68,25.68,0,0,0,54,226.87Z" transform="translate(-19.36 -139.14)"/><path class="cls-5" d="M69,302.16v1c-.74.74-3.79,3.21-11.58,3.21-7.62,0-10.56-2.48-11.26-3.2V266.43a1,1,0,0,0-2,0V303.5a.94.94,0,0,0,.18.56c.11.18,3,4.28,13.08,4.28,10.3,0,13.28-4.09,13.4-4.26a1,1,0,0,0,.18-.58v-.34H70A1,1,0,0,1,69,302.16Z" transform="translate(-19.36 -139.14)"/><path class="cls-5" d="M70,272h1V248.23a21.76,21.76,0,0,0-10.86-18.9,22.23,22.23,0,0,0-4.2-1.9c0,.14,0,.29,0,.43a1,1,0,0,1-2,0c0-.33,0-.66,0-1A20.62,20.62,0,0,0,39.35,229a19.34,19.34,0,0,0-4.27,3.19,17.84,17.84,0,0,0,0,25.2,14.44,14.44,0,0,0,18.35,1.73,12.31,12.31,0,0,0,4.77-13.78,10.21,10.21,0,0,0-7.4-7.23,9.16,9.16,0,0,0-8.9,2.67c-1.27,1.37-2.71,4.64-1.17,7.59a5.3,5.3,0,0,0,4.08,2.88A4.88,4.88,0,0,0,49,249.75a1,1,0,0,0-.1-1.42,1,1,0,0,0-1.41.1,2.9,2.9,0,0,1-2.48.81,3.27,3.27,0,0,1-2.54-1.83,5,5,0,0,1,.86-5.3,7.16,7.16,0,0,1,7-2.08,8.12,8.12,0,0,1,5.93,5.85,10.32,10.32,0,0,1-4,11.56,12.46,12.46,0,0,1-15.81-1.5,15.83,15.83,0,0,1,0-22.37,17.21,17.21,0,0,1,3.83-2.85,18.79,18.79,0,0,1,18.82.34A19.76,19.76,0,0,1,69,248.23V273A1,1,0,0,1,70,272Z" transform="translate(-19.36 -139.14)"/><path class="cls-5" d="M70,301.16h1V274H70a1,1,0,0,1-1-1v29.15A1,1,0,0,1,70,301.16Z" transform="translate(-19.36 -139.14)"/><path class="cls-5" d="M70,274h1v-2H70a1,1,0,1,0,0,2Z" transform="translate(-19.36 -139.14)"/><path class="cls-5" d="M70,301.16a1,1,0,1,0,0,2h1v-2Z" transform="translate(-19.36 -139.14)"/><path class="cls-5" d="M54.94,228.86a1,1,0,0,0,1-1c0-.14,0-.29,0-.43-.65-.22-1.31-.4-2-.56,0,.33,0,.66,0,1A1,1,0,0,0,54.94,228.86Z" transform="translate(-19.36 -139.14)"/><path class="cls-5" d="M65.3,309.3a1,1,0,0,0-1,1v3.05c-.56.49-2.43,1.77-6.81,1.77s-6.08-1.28-6.6-1.76V310.3a1,1,0,0,0-2,0v3.44a1,1,0,0,0,.17.56c.2.29,2.09,2.82,8.43,2.82s8.43-2.51,8.63-2.8a1.07,1.07,0,0,0,.18-.58V310.3A1,1,0,0,0,65.3,309.3Z" transform="translate(-19.36 -139.14)"/><path class="cls-5" d="M93.29,235a1,1,0,0,0-1.42,1.42l1.77,1.76,1.41-1.41Z" transform="translate(-19.36 -139.14)"/><path class="cls-5" d="M96.82,241.39a1,1,0,0,0,1.41,0,1,1,0,0,0,0-1.41l-1.76-1.77-1.42,1.42Z" transform="translate(-19.36 -139.14)"/><path class="cls-5" d="M98.23,236.45a1,1,0,0,0,0-1.42,1,1,0,0,0-1.41,0l-1.77,1.77,1.42,1.41Z" transform="translate(-19.36 -139.14)"/><path class="cls-5" d="M91.87,241.39a1,1,0,0,0,.71.3,1,1,0,0,0,.71-.3l1.76-1.76-1.41-1.42L91.87,240A1,1,0,0,0,91.87,241.39Z" transform="translate(-19.36 -139.14)"/><polyline class="cls-5" points="75.69 97.66 74.28 99.08 75.69 100.49"/><rect class="cls-3" x="56.37" y="80.28" width="27.94" height="39.6"/></svg>